<svg xmlns="http://www.w3.org/2000/svg" xmlns:xlink="http://www.w3.org/1999/xlink" width="1080" zoomAndPan="magnify" viewBox="0 0 810 809.999993" height="1080" preserveAspectRatio="xMidYMid meet" version="1.0"><defs><g/></defs><rect x="-81" width="972" fill="#ffffff" y="-80.999999" height="971.999992" fill-opacity="1"/><rect x="-81" width="972" fill="#000000" y="-80.999999" height="971.999992" fill-opacity="1"/><g fill="#ffffff" fill-opacity="1"><g transform="translate(294.644521, 540.749993)"><g><path d="M 152.15625 -284.375 L 189.84375 -284.375 L 189.84375 -83.015625 C 189.84375 -55.796875 181.671875 -34.503906 165.328125 -19.140625 C 148.992188 -3.773438 127.21875 3.90625 100 3.90625 C 71.75 3.90625 49.742188 -3.316406 33.984375 -17.765625 C 18.234375 -32.222656 10.359375 -52.472656 10.359375 -78.515625 L 47.859375 -78.515625 C 47.859375 -62.242188 52.316406 -49.550781 61.234375 -40.4375 C 70.148438 -31.320312 83.070312 -26.765625 100 -26.765625 C 115.5 -26.765625 128.03125 -31.644531 137.59375 -41.40625 C 147.164062 -51.175781 152.019531 -64.847656 152.15625 -82.421875 Z M 152.15625 -284.375 "/></g></g></g></svg>